<svg width="72" height="94" viewBox="0 0 72 94" fill="none" xmlns="http://www.w3.org/2000/svg">
<path d="M27.2727 93.0909H0V0H28.9091C37.7879 0 45.3788 1.84849 51.6818 5.54546C58.0152 9.24243 62.8636 14.5455 66.2273 21.4545C69.5909 28.3636 71.2727 36.6515 71.2727 46.3182C71.2727 56.0758 69.5455 64.4545 66.0909 71.4545C62.6667 78.4242 57.6667 83.7727 51.0909 87.5C44.5455 91.2273 36.6061 93.0909 27.2727 93.0909ZM8.5 85.4545H26.7727C34.7727 85.4545 41.4697 83.8788 46.8636 80.7273C52.2576 77.5758 56.303 73.0758 59 67.2273C61.697 61.3788 63.0455 54.4091 63.0455 46.3182C63.0152 38.2879 61.6818 31.3788 59.0455 25.5909C56.4394 19.803 52.5606 15.3636 47.4091 12.2727C42.2879 9.18182 35.9545 7.63636 28.4091 7.63636H8.5V85.4545Z" fill="white"/>
<path d="M31.2466 75.6179L23.2243 56.5122L29.2146 56.5122L33.9383 69.1262L33.6348 68.9415L34.3341 68.9415L34.0438 69.1262L38.7543 56.5122L44.7578 56.5122L36.7355 75.6179L31.2466 75.6179Z" fill="white"/>
<path d="M49.9893 53.0578L17.6362 44.3494L17.6362 38.8473L49.9893 47.5557L49.9893 53.0578Z" fill="white"/>
<path d="M31.2466 16.0909L36.7355 16.0909L44.7578 35.1966L38.7543 35.1966L34.0438 22.5827L34.3341 22.7806L33.6348 22.7806L33.9383 22.5827L29.2146 35.1966L23.2243 35.1966L31.2466 16.0909Z" fill="white"/>
</svg>
