<svg width="226" height="211" viewBox="0 0 226 211" fill="none" xmlns="http://www.w3.org/2000/svg">
<path d="M102.765 178.427C84.5777 189.153 66.712 199.706 48.5664 210.424C46.2326 205.848 47.8411 201.76 47.1342 197.965C44.9579 186.282 50.2559 180.012 60.3633 174.232C97.9617 152.73 134.954 130.169 172.169 107.997C173.28 107.334 174.33 106.569 175.983 105.469C170.857 102.365 166.239 99.5046 161.561 96.7483C125.385 75.4364 89.2333 54.0836 52.9661 32.9285C48.7029 30.4417 46.7514 27.6764 47.0777 22.6162C47.5234 15.7054 47.1889 8.7442 47.1889 0C107.182 35.4499 165.826 70.1034 225.841 105.566C184.045 130.315 143.566 154.285 102.765 178.427Z" fill="white"/>
<path d="M0.0817276 38.024C0.0811476 27.026 0.235995 16.5245 0.0039688 6.03164C-0.0888042 1.83662 1.43607 0.430905 5.50784 0.644009C10.4934 0.904888 15.5042 0.786587 20.5011 0.685925C23.4854 0.625805 24.8184 1.90846 24.6511 4.86413C24.5947 5.86036 24.6589 6.86311 24.6589 7.86288C24.6571 73.0172 24.6568 138.171 24.6483 203.326C24.6474 210.807 24.6261 210.833 17.1421 210.905C12.9771 210.946 8.81076 210.839 4.64572 210.877C1.28864 210.907 -0.0389084 209.412 0.0332046 205.991C0.201693 197.996 0.0868549 189.995 0.0865799 181.997C0.0850549 134.173 0.0834676 86.3482 0.0817276 38.024Z" fill="white"/>
</svg>
