<svg width="126" height="32" viewBox="0 0 126 32" fill="none" xmlns="http://www.w3.org/2000/svg">
<g clip-path="url(#clip0_15_154)">
<path d="M14.4149 0H0.643311V32L14.4149 0Z" fill="white"/>
<path d="M24.1044 0H37.858V32L24.1044 0Z" fill="white"/>
<path d="M19.2597 11.7941L28.025 32H22.2742L19.6544 25.5669H13.2396L19.2597 11.7941Z" fill="white"/>
<path d="M60.3253 20.3499L61.9492 24.874C62.003 24.9874 62.0837 25.0397 62.2273 25.0397H65.3495C65.5199 25.0397 65.5468 24.9612 65.5199 24.7956L59.0693 7.38779C59.0423 7.24832 59.0154 7.22217 58.8719 7.22217H54.9961C54.8884 7.22217 54.8256 7.30062 54.8256 7.41394C54.7718 8.32922 54.691 8.60817 54.5744 8.87839L48.8235 24.7694C48.7966 24.9612 48.8594 25.0397 49.0209 25.0397H51.8111C51.9816 25.0397 52.0623 24.9874 52.1251 24.8217L53.6593 20.3499H60.3253ZM54.5475 17.3949C55.3908 14.9193 56.5033 11.7463 56.9519 9.93315H56.9788C57.5351 11.8334 58.845 15.5992 59.4371 17.3949H54.5475Z" fill="white"/>
<path d="M73.8128 25.3099C75.4905 25.3099 77.2758 25.0135 79.0881 24.2551C79.2317 24.2028 79.2586 24.1418 79.2586 24.0111C79.2048 23.5229 79.142 22.8168 79.142 22.2764V5.88847C79.142 5.78387 79.142 5.73157 79.0074 5.73157H75.966C75.8494 5.73157 75.7955 5.78387 75.7955 5.92334V11.4761C75.32 11.4237 74.9881 11.3976 74.5933 11.3976C69.6858 11.3976 66.6713 14.5444 66.6713 18.4758C66.6713 23.0348 69.7665 25.3099 73.8128 25.3099ZM75.7955 22.2764C75.2931 22.4333 74.7368 22.4943 74.1716 22.4943C71.9466 22.4943 70.1254 21.2739 70.1254 18.3102C70.1254 15.6864 72.0005 14.1347 74.4856 14.1347C74.9881 14.1347 75.4277 14.187 75.7955 14.3265V22.2764Z" fill="white"/>
<path d="M88.9612 11.3976C84.7714 11.3976 82.1786 14.5183 82.1786 18.3712C82.1786 21.8144 84.2421 25.3099 88.8984 25.3099C92.837 25.3099 95.6003 22.4943 95.6003 18.284C95.6003 14.5706 93.2587 11.3976 88.9612 11.3976ZM88.7908 14.1347C91.1593 14.1347 92.1641 16.1135 92.1641 18.3712C92.1641 21.1606 90.6838 22.5466 88.9612 22.5466C86.8349 22.5466 85.5789 20.8119 85.5789 18.3101C85.5789 15.7386 86.9157 14.1347 88.7908 14.1347Z" fill="white"/>
<path d="M98.7447 5.73157C98.6281 5.73157 98.5474 5.78387 98.5474 5.92334V24.4731C98.5474 24.5515 98.6281 24.691 98.7447 24.7171C100.082 25.1181 101.481 25.3099 102.926 25.3099C107.062 25.3099 111.081 22.8168 111.081 17.7959C111.081 14.1609 108.515 11.3976 104.496 11.3976C103.572 11.3976 102.71 11.5371 101.957 11.7811L101.921 5.94949C101.921 5.75772 101.867 5.73157 101.67 5.73157H98.7447ZM107.645 18.1271C107.645 21.1345 105.527 22.5466 103.24 22.5466C102.764 22.5466 102.342 22.5205 101.957 22.4071V14.4921C102.396 14.3265 102.926 14.187 103.903 14.187C106.111 14.187 107.645 15.5469 107.645 18.1271Z" fill="white"/>
<path d="M122.431 19.1034C123.795 19.1034 124.917 19.0772 125.302 18.9901C125.446 18.9639 125.5 18.9116 125.527 18.7983C125.607 18.5019 125.643 17.883 125.643 17.1246C125.643 14.5444 124.046 11.3976 119.919 11.3976C115.703 11.3976 113.361 14.7362 113.361 18.5019C113.361 21.8405 115.173 25.3099 120.251 25.3099C122.153 25.3099 123.382 25.0135 124.441 24.5253C124.549 24.473 124.603 24.3859 124.603 24.229V21.9713C124.603 21.8405 124.522 21.8144 124.441 21.8667C123.382 22.3025 122.234 22.5204 120.978 22.5204C118.134 22.5204 116.842 20.995 116.761 19.1034H122.431ZM116.761 16.7672C116.986 15.4423 117.847 14.004 119.776 14.004C121.902 14.004 122.458 15.7386 122.458 16.5232C122.458 16.5493 122.458 16.6626 122.458 16.7411C122.342 16.7672 121.983 16.7672 120.924 16.7672H116.761Z" fill="white"/>
</g>
<defs>
<clipPath id="clip0_15_154">
<rect width="125" height="32" fill="white" transform="translate(0.643311)"/>
</clipPath>
</defs>
</svg>
