<svg width="191" height="62" viewBox="0 0 191 62" fill="none" xmlns="http://www.w3.org/2000/svg">
<path d="M18.9746 19.3186L38.1844 1.99587C39.6091 0.711091 41.4595 0 43.3779 0H183.216C187.499 0 190.971 3.4721 190.971 7.75515V53.3167C190.971 57.5997 187.499 61.0718 183.216 61.0718H7.75515C3.4721 61.0718 0 57.5997 0 53.3167V39.097C0 36.828 0.993669 34.6729 2.71915 33.1995L18.9746 19.3186Z" fill="white"/>
<path d="M39.4833 36.1551C38.6561 36.1551 37.8857 36.0207 37.1723 35.7518C36.4691 35.4726 35.8539 35.0849 35.3265 34.5886C34.8095 34.0819 34.4063 33.4873 34.1167 32.8049C33.8272 32.1224 33.6825 31.3779 33.6825 30.5714C33.6825 29.7649 33.8272 29.0204 34.1167 28.3379C34.4063 27.6555 34.8147 27.0661 35.3421 26.5697C35.8694 26.0631 36.4846 25.6753 37.1878 25.4065C37.8909 25.1273 38.6613 24.9877 39.4988 24.9877C40.3881 24.9877 41.1998 25.1428 41.9339 25.453C42.6681 25.7529 43.2885 26.2027 43.7952 26.8024L42.4923 28.0277C42.0994 27.6038 41.6599 27.2884 41.1739 27.0816C40.6879 26.8644 40.1606 26.7559 39.5919 26.7559C39.0232 26.7559 38.501 26.8489 38.0253 27.035C37.56 27.2212 37.1516 27.4848 36.8 27.8261C36.4588 28.1673 36.19 28.5706 35.9935 29.0359C35.8074 29.5012 35.7143 30.013 35.7143 30.5714C35.7143 31.1298 35.8074 31.6416 35.9935 32.1069C36.19 32.5722 36.4588 32.9755 36.8 33.3167C37.1516 33.6579 37.56 33.9216 38.0253 34.1077C38.501 34.2939 39.0232 34.3869 39.5919 34.3869C40.1606 34.3869 40.6879 34.2835 41.1739 34.0767C41.6599 33.8596 42.0994 33.5339 42.4923 33.0996L43.7952 34.3404C43.2885 34.9298 42.6681 35.3796 41.9339 35.6898C41.1998 36 40.3829 36.1551 39.4833 36.1551ZM52.7588 36.1551C51.9109 36.1551 51.1302 36.0155 50.4167 35.7363C49.7033 35.4571 49.0829 35.0694 48.5555 34.5731C48.0282 34.0664 47.6197 33.477 47.3302 32.8049C47.0407 32.1224 46.8959 31.3779 46.8959 30.5714C46.8959 29.7649 47.0407 29.0255 47.3302 28.3534C47.6197 27.671 48.0282 27.0816 48.5555 26.5852C49.0829 26.0786 49.7033 25.6856 50.4167 25.4065C51.1302 25.1273 51.9057 24.9877 52.7433 24.9877C53.5912 24.9877 54.3667 25.1273 55.0698 25.4065C55.7833 25.6856 56.4037 26.0786 56.9311 26.5852C57.4584 27.0816 57.8669 27.671 58.1564 28.3534C58.4459 29.0255 58.5907 29.7649 58.5907 30.5714C58.5907 31.3779 58.4459 32.1224 58.1564 32.8049C57.8669 33.4873 57.4584 34.0767 56.9311 34.5731C56.4037 35.0694 55.7833 35.4571 55.0698 35.7363C54.3667 36.0155 53.5964 36.1551 52.7588 36.1551ZM52.7433 34.3869C53.2913 34.3869 53.798 34.2939 54.2633 34.1077C54.7286 33.9216 55.1319 33.6579 55.4731 33.3167C55.8143 32.9651 56.078 32.5619 56.2641 32.1069C56.4606 31.6416 56.5588 31.1298 56.5588 30.5714C56.5588 30.013 56.4606 29.5064 56.2641 29.0514C56.078 28.5861 55.8143 28.1828 55.4731 27.8416C55.1319 27.49 54.7286 27.2212 54.2633 27.035C53.798 26.8489 53.2913 26.7559 52.7433 26.7559C52.1953 26.7559 51.6886 26.8489 51.2233 27.035C50.7683 27.2212 50.365 27.49 50.0135 27.8416C49.6722 28.1828 49.4034 28.5861 49.2069 29.0514C49.0208 29.5064 48.9278 30.013 48.9278 30.5714C48.9278 31.1194 49.0208 31.6261 49.2069 32.0914C49.4034 32.5567 49.6722 32.9651 50.0135 33.3167C50.3547 33.6579 50.758 33.9216 51.2233 34.1077C51.6886 34.2939 52.1953 34.3869 52.7433 34.3869ZM62.8994 36V25.1428H64.559L71.368 33.5028H70.546V25.1428H72.5468V36H70.8872L64.0782 27.6399H64.9002V36H62.8994ZM79.83 36V26.8489H76.2316V25.1428H85.4447V26.8489H81.8463V36H79.83ZM87.0486 36L91.9343 25.1428H93.9196L98.8209 36H96.7115L92.5082 26.213H93.3147L89.127 36H87.0486ZM89.2976 33.4873L89.8404 31.9053H95.7033L96.2462 33.4873H89.2976ZM107.247 36.1551C106.42 36.1551 105.649 36.0207 104.936 35.7518C104.233 35.4726 103.618 35.0849 103.09 34.5886C102.573 34.0819 102.17 33.4873 101.88 32.8049C101.591 32.1224 101.446 31.3779 101.446 30.5714C101.446 29.7649 101.591 29.0204 101.88 28.3379C102.17 27.6555 102.578 27.0661 103.106 26.5697C103.633 26.0631 104.248 25.6753 104.951 25.4065C105.655 25.1273 106.425 24.9877 107.263 24.9877C108.152 24.9877 108.963 25.1428 109.698 25.453C110.432 25.7529 111.052 26.2027 111.559 26.8024L110.256 28.0277C109.863 27.6038 109.424 27.2884 108.938 27.0816C108.452 26.8644 107.924 26.7559 107.356 26.7559C106.787 26.7559 106.265 26.8489 105.789 27.035C105.324 27.2212 104.915 27.4848 104.564 27.8261C104.222 28.1673 103.954 28.5706 103.757 29.0359C103.571 29.5012 103.478 30.013 103.478 30.5714C103.478 31.1298 103.571 31.6416 103.757 32.1069C103.954 32.5722 104.222 32.9755 104.564 33.3167C104.915 33.6579 105.324 33.9216 105.789 34.1077C106.265 34.2939 106.787 34.3869 107.356 34.3869C107.924 34.3869 108.452 34.2835 108.938 34.0767C109.424 33.8596 109.863 33.5339 110.256 33.0996L111.559 34.3404C111.052 34.9298 110.432 35.3796 109.698 35.6898C108.963 36 108.147 36.1551 107.247 36.1551ZM117.744 36V26.8489H114.145V25.1428H123.358V26.8489H119.76V36H117.744ZM124.962 36L129.848 25.1428H131.833L136.735 36H134.625L130.422 26.213H131.228L127.041 36H124.962ZM127.211 33.4873L127.754 31.9053H133.617L134.16 33.4873H127.211ZM140.287 36V25.1428H141.946L146.692 33.0686H145.824L150.493 25.1428H152.152L152.168 36H150.26L150.244 28.1363H150.648L146.677 34.7592H145.777L141.745 28.1363H142.21V36H140.287ZM159.133 29.6563H164.531V31.3159H159.133V29.6563ZM159.288 34.3094H165.415V36H157.272V25.1428H165.198V26.8334H159.288V34.3094Z" fill="black"/>
</svg>
