<svg width="48" height="66" viewBox="0 0 48 66" fill="none" xmlns="http://www.w3.org/2000/svg">
<path d="M17.4593 6.21062V9.03638H10.2564V0.309753H17.4593V3.38485H13.3592V6.21062H17.4593ZM24.8561 3.38485H27.7373V0.309753H20.5344C20.5344 0.309753 20.5344 1.86115 20.5344 3.38485C21.504 4.35448 22.0027 4.82544 23.3879 6.21062C22.5845 6.21062 20.5344 6.21062 20.5344 6.21062V9.03638H27.7373V6.21062L24.8561 3.38485ZM35.0788 3.38485H37.9599V0.309753H30.757C30.757 0.309753 30.757 1.86115 30.757 3.38485C31.7266 4.35448 32.2253 4.82544 33.6105 6.21062C32.8071 6.21062 30.757 6.21062 30.757 6.21062V9.03638H37.9599V6.21062L35.0788 3.38485ZM47.4346 13.1919L43.0574 60.5928L24.1082 65.6902L5.1589 60.5928L0.781738 13.1919H47.4346ZM38.6248 22.8328H24.0805H9.28674L10.007 28.5674H24.0805H24.8839L24.0805 28.8999L10.5057 34.5514L10.949 40.1475L24.0805 40.1752L31.1172 40.2029L30.6739 47.6552L24.0805 49.5113H24.025L17.6532 47.9045L17.2654 43.278H17.2377H11.3645H11.3368L12.1125 52.2263L24.0805 55.7723H24.1082L36.0207 52.3094L37.5721 34.5514H24.1082L38.0708 28.5951L38.6248 22.8328Z" fill="white"/>
</svg>
