<svg width="45" height="64" viewBox="0 0 45 64" fill="none" xmlns="http://www.w3.org/2000/svg">
<path d="M3.04639 5.28157V9.97229H4.61884H6.1913V8.13331V6.29434H7.44393H8.69656V8.13331V9.97229H10.3223H11.9481L11.9214 5.30823L11.8948 0.644164L10.2957 0.617512L8.69656 0.590861V2.37653V4.13555H7.44393H6.1913V2.37653V0.564209H4.61884H3.04639V5.28157Z" fill="white"/>
<path d="M13.1206 1.68358V2.80296L14.2133 2.82961L15.2794 2.85626L15.3061 6.40095L15.3327 9.97229H16.8252H18.3177V6.40095V2.80296H19.4371H20.5565L20.5298 1.71024L20.5031 0.644164L16.8252 0.617512L13.1206 0.564209V1.68358Z" fill="white"/>
<path d="M21.7295 5.28157V9.97229H22.9821H24.2348V6.72077V3.52256L24.9544 5.86791C25.3541 7.17385 25.7806 8.61305 25.9405 9.09278L26.207 9.97229H27.2198H28.2325L29.112 6.85403C29.6184 5.14831 30.0448 3.65582 30.0981 3.54921C30.1515 3.4426 30.2048 4.85515 30.2048 6.64081V9.94564H31.4574H32.71V5.28157V0.564209H30.8444H28.9521L28.2592 2.98952C27.8861 4.32211 27.5396 5.41483 27.4863 5.41483C27.4596 5.41483 27.0865 4.34876 26.6867 3.01617L25.9671 0.644164L23.8616 0.617512L21.7561 0.590861L21.7295 5.28157Z" fill="white"/>
<path d="M34.4155 5.28157V9.97229H38.0668H41.7181V8.85291V7.76019H39.7192H37.6937V4.1622V0.564209H36.0679H34.4422V5.28157H34.4155Z" fill="white"/>
<path d="M0.43457 14.05C0.43457 14.9296 3.97926 55.5202 4.05921 55.5735C4.19247 55.7068 21.8892 63.4358 22.0758 63.4358C22.1824 63.4358 39.7459 56.3731 39.8792 56.2665C39.9058 56.2398 44.3567 14.2366 44.3567 13.9701C44.3567 13.9168 34.4689 13.8901 22.3956 13.8901C4.93872 13.9168 0.43457 13.9434 0.43457 14.05ZM34.8154 26.4431V28.9217H24.5011H14.1602V31.4803V34.0389H24.4745H34.7887V41.5813V49.1238L28.4989 51.7623C25.0342 53.2015 22.1291 54.4008 22.0758 54.4008C21.9959 54.4008 19.1175 53.2015 15.6261 51.7623L9.30961 49.0971V46.1388V43.1538H11.7349H14.1336L14.1602 44.4864L14.1869 45.819L18.1047 47.1249L22.0225 48.4042L25.8071 47.1249C29.5117 45.8723 29.5916 45.819 29.6982 45.4458C29.7515 45.2326 29.8048 43.6602 29.8581 41.9545L29.9114 38.8628H19.5972H9.33626V31.427V23.9645H22.0758H34.8154V26.4431Z" fill="white"/>
</svg>
