<svg width="54" height="54" viewBox="0 0 54 54" fill="none" xmlns="http://www.w3.org/2000/svg">
<path d="M26.8123 0.0917358C24.624 0.0917358 22.526 0.294768 20.6762 0.610595C15.2395 1.58064 14.2469 3.58839 14.2469 7.28809V12.1834H27.083V13.8077H14.2469H9.44177C5.71952 13.8077 2.44845 16.041 1.41073 20.3047C0.23766 25.2 0.169982 28.2455 1.41073 33.3438C2.3131 37.1563 4.50133 39.8409 8.22358 39.8409H12.6452V33.9755C12.6452 29.7344 16.3223 26.0121 20.6762 26.0121H33.5123C37.0767 26.0121 39.9417 23.0795 39.9417 19.4926V7.28809C39.9417 3.81399 37.009 1.19713 33.5123 0.610595C31.3015 0.24965 29.0005 0.0917358 26.8123 0.0917358ZM19.8641 4.03958C21.1951 4.03958 22.2779 5.14497 22.2779 6.49852C22.2779 7.85206 21.1951 8.9349 19.8641 8.9349C18.5331 8.9349 17.4502 7.85206 17.4502 6.49852C17.4502 5.12241 18.5331 4.03958 19.8641 4.03958ZM41.5208 13.8077V19.5151C41.5208 23.9367 37.776 27.6589 33.4898 27.6589H20.6762C17.157 27.6589 14.2469 30.6593 14.2469 34.1785V46.4056C14.2469 49.8797 17.2698 51.9325 20.6762 52.9251C24.7368 54.1208 28.6396 54.3464 33.5123 52.9251C36.7383 52.0002 39.9417 50.1052 39.9417 46.4056V41.5102H27.1055V39.886H39.9417H46.371C50.0933 39.886 51.4919 37.2917 52.8003 33.389C54.1313 29.3734 54.0862 25.4933 52.8003 20.3498C51.8754 16.6276 50.1158 13.8528 46.371 13.8528L41.5208 13.8077ZM34.3019 44.7813C35.6329 44.7813 36.7157 45.8641 36.7157 47.2177C36.7157 48.5712 35.6329 49.6766 34.3019 49.6766C32.9709 49.6766 31.8881 48.5712 31.8881 47.2177C31.8881 45.8641 32.9935 44.7813 34.3019 44.7813Z" fill="white"/>
</svg>
