<svg width="71" height="71" viewBox="0 0 71 71" fill="none" xmlns="http://www.w3.org/2000/svg">
<ellipse cx="36.5" cy="36" rx="28.5" ry="27" fill="white"/>
<path d="M37.2597 20.2548C28.773 20.2548 21.8709 27.1562 21.8677 35.6391C21.8664 38.5463 22.68 41.3775 24.22 43.8271L24.5859 44.4092L23.0316 50.0866L28.8548 48.5591L29.4165 48.8925C31.7788 50.2943 34.4866 51.036 37.2473 51.0372H37.2536C45.7338 51.0372 52.6357 44.1351 52.6391 35.6514C52.6407 31.5404 51.0418 27.6748 48.1371 24.7666C45.2323 21.8586 41.3692 20.256 37.2597 20.2548ZM46.3095 42.2542C45.9242 43.3344 44.0762 44.3205 43.1876 44.4533C42.3906 44.5725 41.3823 44.6221 40.2743 44.2701C39.6026 44.0569 38.7411 43.7723 37.6375 43.2958C32.9977 41.2922 29.9674 36.6206 29.7362 36.3118C29.505 36.0032 27.8475 33.8038 27.8475 31.527C27.8475 29.2506 29.0425 28.1315 29.4664 27.6684C29.8902 27.2056 30.3914 27.0897 30.6998 27.0897C31.0081 27.0897 31.3168 27.0926 31.5862 27.106C31.8701 27.1204 32.2514 26.9982 32.627 27.9C33.0123 28.8262 33.9373 31.1029 34.053 31.3344C34.1688 31.5659 34.2458 31.836 34.0916 32.1447C33.9375 32.4532 33.8604 32.6463 33.6291 32.9163C33.3979 33.1864 33.1433 33.5193 32.9353 33.7265C32.7038 33.9572 32.4627 34.2076 32.7324 34.6704C33.0023 35.1337 33.9306 36.6482 35.3056 37.8747C37.0722 39.4504 38.5626 39.9388 39.0251 40.1704C39.4876 40.4021 39.7575 40.3631 40.0273 40.0547C40.2971 39.746 41.1836 38.704 41.4919 38.241C41.8002 37.7781 42.1085 37.8553 42.5325 38.0096C42.9564 38.1641 45.2305 39.2828 45.693 39.5143C46.1555 39.7458 46.4638 39.8617 46.5794 40.0547C46.695 40.2474 46.695 41.1735 46.3095 42.2542Z" fill="#6426DE"/>
<path d="M36.5769 5.47728C19.5455 5.47728 5.73779 19.2824 5.73779 36.3139C5.73779 53.3454 19.5455 67.153 36.5769 67.153C53.6071 67.153 67.4148 53.3454 67.4148 36.3139C67.4148 19.2824 53.6071 5.47728 36.5769 5.47728ZM37.2537 54.1636C37.2531 54.1636 37.2541 54.1636 37.2537 54.1636H37.246C34.148 54.1625 31.1036 53.3852 28.4001 51.9105L18.587 54.4846L21.2132 44.8924C19.5933 42.0851 18.7409 38.9008 18.7423 35.6381C18.7463 25.432 27.0505 17.1284 37.2536 17.1284C42.2054 17.1304 46.8532 19.0581 50.348 22.5571C53.8429 26.0559 55.7667 30.7066 55.7648 35.6529C55.7604 45.8592 47.4557 54.1636 37.2537 54.1636Z" fill="#6426DE"/>
</svg>
