<?xml version="1.0" standalone="no"?>
<!DOCTYPE svg PUBLIC "-//W3C//DTD SVG 20010904//EN"
 "http://www.w3.org/TR/2001/REC-SVG-20010904/DTD/svg10.dtd">
<svg version="1.0" xmlns="http://www.w3.org/2000/svg"
 width="225.000000pt" height="225.000000pt" viewBox="0 0 225.000000 225.000000"
 preserveAspectRatio="xMidYMid meet">

<g transform="translate(0.000000,225.000000) scale(0.100000,-0.100000)"
fill="#000000" stroke="none">
<path d="M936 2234 c-364 -66 -660 -289 -822 -619 -176 -361 -143 -798 87
-1130 71 -104 236 -258 340 -319 215 -128 456 -182 694 -157 145 15 245 44
380 111 139 68 223 129 322 233 409 431 414 1106 10 1533 -112 119 -196 182
-322 244 -216 106 -467 144 -689 104z m434 -137 c361 -93 644 -380 731 -742
24 -101 27 -341 4 -437 -90 -388 -367 -671 -752 -768 -114 -29 -347 -28 -463
1 -368 93 -645 370 -742 742 -29 109 -31 336 -5 445 103 427 439 732 867 786
86 10 267 -3 360 -27z"/>
<path d="M504 1425 c-40 -42 -54 -63 -54 -85 0 -25 46 -77 306 -345 169 -173
322 -324 340 -336 l34 -21 33 27 c17 15 168 167 335 338 243 250 302 316 302
337 0 20 -16 42 -59 83 -33 32 -68 57 -78 57 -11 1 -122 -106 -279 -265 l-261
-266 -258 266 c-199 205 -263 265 -282 265 -17 0 -42 -18 -79 -55z"/>
</g>
</svg>
