<svg width="33" height="60" viewBox="0 0 33 60" fill="none" xmlns="http://www.w3.org/2000/svg">
<path d="M13.6104 59.527L5.58808 40.4213L11.5784 40.4213L16.3021 53.0352L15.9986 52.8505L16.6979 52.8505L16.4076 53.0352L21.1181 40.4213L27.1216 40.4213L19.0993 59.527L13.6104 59.527Z" fill="white"/>
<path d="M32.353 36.9669L-2.40506e-07 28.2585L0 22.7563L32.353 31.4647L32.353 36.9669Z" fill="white"/>
<path d="M13.6104 -5.90594e-07L19.0993 -3.50665e-07L27.1216 19.1057L21.1181 19.1057L16.4076 6.49171L16.6979 6.68963L15.9986 6.68963L16.3021 6.49171L11.5784 19.1057L5.58808 19.1057L13.6104 -5.90594e-07Z" fill="white"/>
</svg>
