<?xml version="1.0" encoding="utf-8"?>
<!-- Svg Vector Icons : http://www.onlinewebfonts.com/icon -->
<!DOCTYPE svg PUBLIC "-//W3C//DTD SVG 1.1//EN" "http://www.w3.org/Graphics/SVG/1.1/DTD/svg11.dtd">
<svg version="1.1" xmlns="http://www.w3.org/2000/svg" xmlns:xlink="http://www.w3.org/1999/xlink" x="0px" y="0px" viewBox="0 0 256 256" enable-background="new 0 0 256 256" xml:space="preserve">
<metadata> Svg Vector Icons : http://www.onlinewebfonts.com/icon </metadata>
<g><g><g id="_x32_069a460dcf28295e231f3111e037552"><path fill="#000000" d="M206.7,10H49.3C27.7,10,10,27.7,10,49.3v157.3c0,21.7,17.7,39.4,39.3,39.4h157.3c21.6,0,39.3-17.7,39.3-39.3V49.3C246,27.7,228.3,10,206.7,10z M123.1,130.1c-8.2,8.2-21.1,12-35.6,12c-3.9,0-7.3-0.2-10-0.7v42.5H57V72.8c7.3-1.3,17.6-2.3,31.4-2.3c15.1,0,26.1,3.2,33.3,9.2c6.7,5.5,11,14.4,11,24.9C132.8,115.2,129.4,124.1,123.1,130.1z M165.9,185.6c-9.9,0-18.7-2.3-24.7-5.7l4-14.9c4.7,2.8,13.5,5.9,20.9,5.9c9,0,13.1-3.7,13.1-9c0-5.5-3.3-8.4-13.4-11.9c-15.9-5.5-22.6-14.2-22.4-23.7c0-14.4,11.9-25.6,30.8-25.6c9,0,16.9,2.3,21.6,4.8l-4.1,14.5c-3.5-2-10-4.7-17.2-4.7c-7.3,0-11.4,3.5-11.4,8.5c0,5.2,3.9,7.7,14.2,11.4c14.7,5.3,21.6,12.9,21.7,24.9C199,174.9,187.5,185.6,165.9,185.6z M112.2,105.3c0,13.2-9.4,20.7-24.7,20.7c-4.2,0-7.5-0.2-10-0.8V87.1c2.2-0.5,6.2-1,11.9-1C103.5,86.1,112.2,92.8,112.2,105.3z"/></g></g></g>
</svg>