<svg width="63" height="63" viewBox="0 0 63 63" fill="none" xmlns="http://www.w3.org/2000/svg">
<g clip-path="url(#clip0_15_216)">
<path d="M31.5 63C48.897 63 63 48.897 63 31.5C63 14.103 48.897 0 31.5 0C14.103 0 0 14.103 0 31.5C0 48.897 14.103 63 31.5 63Z" fill="#6426DE"/>
<path d="M23.5499 19C24.7177 19 25.7836 19.1059 26.7477 19.3156C27.7119 19.5252 28.5351 19.8695 29.2219 20.3483C29.9087 20.8272 30.4417 21.4627 30.8209 22.2571C31.2 23.0515 31.3885 24.0313 31.3885 25.1987C31.3885 26.4587 31.1068 27.5091 30.5457 28.3499C29.9846 29.1907 29.1526 29.8792 28.0542 30.4154C29.5664 30.8589 30.6952 31.6357 31.4405 32.7435C32.1858 33.8513 32.5584 35.1885 32.5584 36.7531C32.5584 38.0131 32.318 39.1055 31.837 40.0279C31.356 40.9503 30.7082 41.7028 29.8936 42.2854C29.079 42.8701 28.1517 43.3004 27.1096 43.5807C26.0609 43.861 24.9798 44.0022 23.8966 44H12V19H23.5499ZM22.8631 29.1178C23.8251 29.1178 24.6159 28.8839 25.2355 28.4183C25.8551 27.9505 26.1649 27.1936 26.1628 26.1432C26.1628 25.5606 26.0588 25.0817 25.853 24.7088C25.6471 24.3359 25.372 24.0424 25.0275 23.8327C24.683 23.6231 24.2887 23.4774 23.8424 23.3958C23.3831 23.3141 22.9173 23.2722 22.4493 23.2744H17.3991V29.1222L22.8631 29.1178ZM23.1729 39.7256C23.6821 39.7278 24.189 39.6748 24.6852 39.5689C25.1662 39.4629 25.5908 39.2886 25.9569 39.0437C26.3231 38.7987 26.6156 38.4655 26.8344 38.0462C27.0511 37.627 27.1616 37.0885 27.1616 36.4353C27.1616 35.1532 26.8062 34.2352 26.0956 33.688C25.385 33.1385 24.4447 32.8648 23.2769 32.8648H17.3991V39.7278L23.1729 39.7256ZM39.3484 39.2004C40.0807 39.9242 41.1358 40.2861 42.5116 40.2861C43.4974 40.2861 44.3445 40.0345 45.0551 39.5336C45.7658 39.0326 46.2012 38.5008 46.3616 37.9403H50.6578C49.971 40.1117 48.9159 41.6631 47.4947 42.5965C46.0734 43.5299 44.3553 43.9978 42.3383 43.9978C40.9408 43.9978 39.6799 43.7705 38.5576 43.3159C37.4354 42.8613 36.4842 42.2125 35.7043 41.3718C34.9243 40.531 34.322 39.5292 33.8995 38.3618C33.4771 37.1944 33.2647 35.9101 33.2647 34.5111C33.2647 33.1583 33.4814 31.8983 33.9169 30.7309C34.3523 29.5636 34.972 28.5551 35.7736 27.7033C36.5752 26.8515 37.5329 26.1807 38.6443 25.6908C39.7557 25.2009 40.9885 24.9559 42.3404 24.9559C43.8527 24.9559 45.17 25.2539 46.2944 25.8497C47.4167 26.4455 48.3396 27.2443 49.0611 28.2484C49.7826 29.2524 50.3047 30.3955 50.6253 31.6798C50.946 32.9641 51.0608 34.3058 50.9698 35.7071H38.1482C38.2153 37.3114 38.6161 38.4788 39.3484 39.2004ZM44.8666 29.6783C44.2817 29.0251 43.3934 28.6986 42.2018 28.6986C41.4218 28.6986 40.774 28.8332 40.2605 29.1002C39.7449 29.3694 39.3333 29.7004 39.0234 30.0976C38.7136 30.4948 38.497 30.9141 38.3713 31.3577C38.2456 31.8012 38.1698 32.1984 38.1482 32.5471H46.0886C45.8568 31.2892 45.4494 30.3315 44.8666 29.6783ZM37.3119 20.2689H47.2325V23.0714H37.3119V20.2689Z" fill="white"/>
</g>
<defs>
<clipPath id="clip0_15_216">
<rect width="63" height="63" fill="white"/>
</clipPath>
</defs>
</svg>
