<?xml version="1.0" encoding="utf-8"?>
<!-- Svg Vector Icons : http://www.onlinewebfonts.com/icon -->
<!DOCTYPE svg PUBLIC "-//W3C//DTD SVG 1.1//EN" "http://www.w3.org/Graphics/SVG/1.1/DTD/svg11.dtd">
<svg version="1.1" xmlns="http://www.w3.org/2000/svg" xmlns:xlink="http://www.w3.org/1999/xlink" x="0px" y="0px" viewBox="0 0 256 256" enable-background="new 0 0 256 256" xml:space="preserve">
<metadata> Svg Vector Icons : http://www.onlinewebfonts.com/icon </metadata>
<g><g><g id="_x32_069a460dcf28295e231f3111e0426ac"><path fill="#000000" d="M245.3,138.9c-1.4-9.8-4.8-19-10-27.5c-4.6-7.4-10.5-14-17.6-19.6l0,0l-74-56.8c-0.1,0-0.1-0.1-0.2-0.1c-2.5-1.9-5.8-2.9-9.4-2.9c-3.6,0-7.1,1-9.7,2.9c-2.9,2-4.6,4.7-4.7,7.6c-0.1,2.7,1.2,5.2,3.6,7.2c4.8,3.8,9.5,7.6,14.3,11.4c4.6,3.7,9.4,7.6,14.1,11.3l-90.6-0.1c-10.4,0-17.4,4.9-18.9,13c-0.6,3.6,0.5,7.5,3,10.5c2.7,3.2,6.6,4.9,10.9,4.9h6.9c9.5,0,19.1,0,28.7,0l9.1,0l-82.3,60.9l-0.3,0.2c-4.6,3.5-7.6,8.5-8.3,13.5c-0.5,3.9,0.4,7.4,2.6,10.2c2.6,3.3,6.7,5.2,11.5,5.2c4.7,0,9.5-1.8,13.6-5l44.4-36.3c-0.2,1.8-0.4,4.4-0.4,6.3c0,3,1,9,2.5,13.9c3.1,10,8.4,19.2,15.7,27.2c7.6,8.4,16.8,15,27.5,19.7c11.2,5,23.3,7.5,36,7.5h0.1c12.6,0,24.8-2.6,36.1-7.6c10.7-4.8,19.9-11.4,27.5-19.8c7.3-8.1,12.6-17.3,15.7-27.3c1.5-5,2.6-10.1,3-15.2C246.2,149,246,144,245.3,138.9z M164.4,186.9c-27.8,0-50.3-20.2-50.3-45c0-24.9,22.5-45,50.3-45c27.8,0,50.3,20.2,50.3,45C214.7,166.8,192.2,186.9,164.4,186.9z M193.4,138c0.4,7.4-2.6,14.3-7.8,19.4c-5.3,5.2-12.8,8.5-21.3,8.5c-8.5,0-16-3.3-21.3-8.5c-5.2-5.1-8.2-12-7.8-19.4c0.4-7.2,3.9-13.6,9.2-18.1c5.2-4.4,12.2-7.1,19.8-7.1c7.6,0,14.6,2.7,19.8,7.1C189.5,124.4,193,130.8,193.4,138z"/></g></g></g>
</svg>