<svg width="42" height="78" viewBox="0 0 42 78" fill="none" xmlns="http://www.w3.org/2000/svg">
<path d="M37.8584 65.7381C38.0237 63.5898 37.4287 62.8627 35.2143 62.9619C34.0906 62.9949 32.9999 63.2924 31.777 63.4907C31.6779 63.028 31.5457 62.5322 31.4135 61.9373C33.5618 61.1441 35.644 60.6153 37.8584 61.1441C39.4118 61.5076 40.4033 62.4661 40.4694 64.0526C40.5686 67.1593 40.5025 70.2992 40.5025 73.5051C39.6431 73.3398 38.4864 74.2322 38.2881 72.7449C36.9991 73.0754 35.677 73.6043 34.355 73.7365C32.4711 73.9017 31.2482 72.8771 30.8847 71.2576C30.4881 69.4398 31.2152 67.5559 32.8677 66.961C34.4211 66.3992 36.1067 66.1678 37.8584 65.7381ZM37.8914 67.6881C36.7016 67.8534 35.677 67.9195 34.6855 68.1839C33.694 68.4153 33.1652 69.539 33.4626 70.4975C33.7601 71.522 34.6525 71.9848 35.7431 71.7204C37.5609 71.2907 37.8914 70.828 37.8914 68.911C37.8914 68.6466 37.8914 68.3161 37.8914 67.6881Z" fill="white"/>
<path d="M17.5321 73.5051C16.8711 73.5051 16.3092 73.5051 15.6813 73.5051C15.5821 73.2077 15.4499 72.8772 15.3177 72.5467C15.1855 72.5467 15.0533 72.5467 14.9872 72.5797C13.8965 73.406 12.6737 73.8687 11.2855 73.8026C9.53382 73.7034 8.41009 72.9763 7.98043 71.5221C7.48467 69.8695 8.01348 68.0187 9.53382 67.2585C10.6906 66.6636 12.0126 66.4653 13.3016 66.1678C13.8304 66.0356 14.3923 66.0687 14.8881 66.0356C15.1525 63.7882 14.4915 62.9619 12.3431 62.995C11.7482 62.995 11.1864 63.0941 10.6245 63.1933C10.0626 63.2924 9.50077 63.4577 8.93891 63.5899C8.34399 62.0034 8.27789 61.8382 9.79823 61.5407C11.3186 61.2102 12.9381 61.045 14.4915 61.1441C16.4084 61.2763 17.3669 62.2348 17.4991 64.1517C17.6643 66.9611 17.5982 69.7704 17.6313 72.5797C17.5982 72.8441 17.5652 73.1416 17.5321 73.5051ZM14.8881 67.7212C13.7974 67.8865 12.7398 67.9195 11.7482 68.184C10.7237 68.4153 10.2609 69.4729 10.5584 70.4975C10.8228 71.4229 11.616 72.0179 12.6076 71.7534C15.0864 71.1585 15.2516 70.7289 14.8881 67.7212Z" fill="white"/>
<path d="M21.4322 28.9856C19.0195 26.5729 16.2432 24.4576 14.9873 21.1195C14.3924 19.5331 14.3593 17.9466 15.5492 16.7237C17.4992 14.7076 19.6144 12.8898 21.6966 11.0059C22.589 10.1797 23.5475 9.45255 24.4068 8.62627C26.7865 6.24661 27.9102 3.43729 27.15 0C28.6043 1.55339 28.8356 3.37119 28.3729 5.28814C27.6127 8.56017 25.3983 10.8737 22.9856 13.022C21.8288 14.0466 20.5729 15.0051 19.5153 16.1619C17.0695 18.8059 16.9043 21.417 18.8543 24.4246C19.7797 25.8788 20.7712 27.3331 21.7297 28.7542C21.5975 28.8534 21.4983 28.9195 21.4322 28.9856Z" fill="white"/>
<path d="M19.0195 61.3093C19.1848 61.2432 19.2178 61.2101 19.2509 61.2101C21.928 61.144 21.895 61.144 22.6551 63.6889C23.2831 65.9034 24.0102 68.1178 24.6712 70.3322C24.7704 70.3322 24.9026 70.3652 25.0017 70.3652C25.7619 67.3245 26.489 64.2839 27.2492 61.2101C28.0094 61.2101 28.8356 61.2101 29.9594 61.2101C29.3314 63.5898 28.7695 65.9034 28.1085 68.1508C27.6789 69.6381 26.9848 71.0593 26.489 72.5466C26.2246 73.3728 25.7289 73.6703 24.9026 73.5381C24.8034 73.5381 24.6712 73.5051 24.539 73.5381C23.217 73.8025 22.6221 73.2406 22.2585 71.9517C21.2339 68.4152 20.1102 64.9118 19.0195 61.3093Z" fill="white"/>
<path d="M38.4204 45.7423C39.412 46.5686 37.8586 48.8491 32.0086 49.6423C0.312799 52.8813 1.93229 49.0805 1.89924 48.2872C1.76704 45.9737 7.78229 44.8499 10.195 45.2466C8.57551 45.8745 4.1467 48.5847 10.2942 48.8161C14.6899 49.0474 19.1187 49.3779 23.5145 49.2127C27.6459 49.0474 38.3543 47.3949 38.4204 45.7423Z" fill="white"/>
<path d="M1.96534 78C1.53568 77.4712 1.13907 77.0085 0.643311 76.4135C3.15518 75.2237 3.35348 73.0424 3.32043 70.6957C3.25433 66.5644 3.32043 62.4 3.32043 58.2686C3.32043 57.839 3.32043 57.4093 3.32043 56.8805C4.27891 56.8805 5.13823 56.8805 6.0967 56.8805C6.0967 57.178 6.12976 57.4754 6.12976 57.7729C6.12976 62.4 6.12976 66.9941 6.12976 71.6212C6.0967 74.9924 5.17128 76.4135 1.96534 78Z" fill="white"/>
<path d="M33.5617 10.8407C31.843 11.9975 30.2896 12.9229 28.8684 14.0136C27.8108 14.8068 26.7862 15.6992 25.96 16.6907C24.5718 18.3102 24.6049 19.5331 25.7286 21.3509C26.1913 22.078 26.654 22.8051 27.1498 23.4992C28.2074 24.9534 28.1744 26.4738 27.2159 27.8619C26.4227 28.9856 25.2989 29.878 24.1422 31.0678C24.1091 30.5721 24.043 30.506 24.0761 30.4399C25.5964 27.961 25.5634 27.3992 23.7456 25.0195C21.4981 22.111 21.1015 19.5 22.8201 17.0543C23.6134 15.8975 24.7371 14.8068 25.9269 14.1127C28.1083 12.8899 30.4879 11.9644 32.7684 10.9399C32.9337 10.8737 33.132 10.9068 33.5617 10.8407Z" fill="white"/>
<path d="M30.2238 43.7924C17.1687 47.6263 12.0789 42.9661 12.0789 42.9661L13.7645 41.4788C14.4255 41.9415 17.8628 44.1229 25.2661 42.5695L30.2238 43.7924Z" fill="white"/>
<path d="M15.1195 29.3822C15.1195 29.3822 6.95595 32.3237 15.6814 32.522C16.8712 32.5551 32.8348 31.2991 32.8348 31.2991C32.8348 31.2991 22.5229 34.2407 13.3348 33.9763C1.0068 32.7534 15.1195 29.3491 15.1195 29.3822Z" fill="white"/>
<path d="M13.2025 35.2983C13.2025 35.2983 11.9796 37.6449 15.483 37.7111C23.7788 37.9424 29.8271 36.4551 29.8271 36.4551C29.8271 36.4551 31.116 38.0746 31.116 38.2399C31.116 38.2399 20.011 40.8178 13.6982 39.1983C9.63299 38.1738 12.3101 35.7611 13.2025 35.2983Z" fill="white"/>
<path d="M41.3619 48.8491C20.2754 54.9305 9.63306 52.0551 9.63306 52.0551C9.63306 52.0551 14.161 55.889 25.4975 53.6745C29.6949 52.8483 37.2305 50.6339 41.3619 48.8491Z" fill="white"/>
<path d="M32.9668 39.1652C33.9253 38.5373 34.8176 38.0746 35.5778 37.4466C36.6354 36.5542 37.7261 35.6288 38.5524 34.5381C39.3456 33.5135 39.4448 32.2246 38.6846 31.0347C37.8914 29.8118 34.6854 29.7127 34.2558 29.6466C34.4541 29.4813 34.8837 29.1839 34.8837 29.1839C34.8837 29.1839 36.4702 28.7542 38.5524 29.0186C41.3948 29.6466 42.3863 32.6873 40.6346 35.0669C39.1804 37.0169 35.5448 39 32.9668 39.1652Z" fill="white"/>
</svg>
