<svg width="51" height="50" viewBox="0 0 51 50" fill="none" xmlns="http://www.w3.org/2000/svg">
<path d="M0.356689 0H50.3567V50H0.356689V0ZM46.2677 38.072C45.9075 35.7839 44.4245 33.8771 40.0177 32.0763C38.4923 31.3559 36.7762 30.8475 36.2677 29.7034C36.077 29.0254 36.0558 28.6441 36.1618 28.2415C36.4796 26.8856 38.0686 26.4831 39.3186 26.8644C40.1236 27.1186 40.8864 27.7331 41.3525 28.75C43.5135 27.3517 43.5135 27.3517 45.0177 26.3983C44.4457 25.5297 44.1702 25.1483 43.7889 24.767C42.4753 23.3051 40.738 22.5424 37.8779 22.6059L36.416 22.7966C35.0177 23.1356 33.6618 23.8983 32.8567 24.8941C30.4838 27.5847 31.1618 32.2669 34.0431 34.2161C36.8821 36.3347 41.0347 36.8008 41.5855 38.8136C42.094 41.25 39.7635 42.0339 37.4965 41.7585C35.8016 41.3771 34.8694 40.5297 33.8313 38.9831L30.0177 41.1653C30.4626 42.161 30.9499 42.6059 31.7126 43.4746C35.3355 47.1398 44.4033 46.9492 46.0347 41.3771C46.0982 41.1864 46.5431 39.9153 46.183 37.9449L46.2677 38.072ZM27.5389 22.9873H22.8567C22.8567 27.0339 22.8355 31.0381 22.8355 35.0847C22.8355 37.6483 22.9626 40 22.5389 40.7415C21.8609 42.1822 20.0813 41.9915 19.2762 41.7373C18.4499 41.3347 18.0262 40.7627 17.5389 39.9576C17.4118 39.7458 17.3058 39.5551 17.2847 39.5551L13.4923 41.8856C14.1279 43.1992 15.0601 44.322 16.2465 45.0424C18.0262 46.1017 20.4202 46.4407 22.9202 45.8898C24.5516 45.4237 25.9499 44.4492 26.6914 42.9449C27.7508 41.0169 27.5389 38.6229 27.5177 35.9746C27.5389 31.6949 27.5177 27.4153 27.5177 23.0932L27.5389 22.9873Z" fill="white"/>
</svg>
