<svg width="58" height="58" viewBox="0 0 58 58" fill="none" xmlns="http://www.w3.org/2000/svg">
<g clip-path="url(#clip0_15_192)">
<path d="M28.9999 0C45.017 0 58 12.9847 58 29.0001C58 45.0155 45.017 58 28.9999 58C12.9828 58 0 45.0153 0 29.0001C0 12.9849 12.9829 0 28.9999 0Z" fill="#6426DE"/>
<path d="M16.3414 39.846H21.7717V21.7463H16.3414V39.846ZM37.497 21.1193C34.8616 21.1193 32.5035 22.0818 30.8307 24.2061V21.6868H25.3805V39.8462H30.8307V30.026C30.8307 27.9507 32.7321 25.9261 35.1137 25.9261C37.4952 25.9261 38.0826 27.9507 38.0826 29.9753V39.8444H43.5129V29.5711C43.5127 22.4352 40.1342 21.1193 37.497 21.1193ZM19.0312 19.9375C20.532 19.9375 21.75 18.7195 21.75 17.2187C21.75 15.7179 20.532 14.5 19.0312 14.5C17.5304 14.5 16.3124 15.7181 16.3124 17.2189C16.3124 18.7197 17.5304 19.9375 19.0312 19.9375Z" fill="white"/>
</g>
<defs>
<clipPath id="clip0_15_192">
<rect width="58" height="58" fill="white"/>
</clipPath>
</defs>
</svg>
