<svg width="304" height="117" viewBox="0 0 304 117" fill="none" xmlns="http://www.w3.org/2000/svg">
<g filter="url(#filter0_d_110_20)">
<path d="M4 44C4 32.402 13.402 23 25 23H229C240.598 23 250 32.402 250 44V68C250 79.598 240.598 89 229 89H25C13.402 89 4 79.598 4 68V44Z" fill="#2B244C"/>
<path d="M4 44C4 32.402 13.402 23 25 23H229C240.598 23 250 32.402 250 44V68C250 79.598 240.598 89 229 89H25C13.402 89 4 79.598 4 68V44Z" fill="url(#paint0_linear_110_20)"/>
<path d="M25 24H229C240.046 24 249 32.9543 249 44V68C249 79.0457 240.046 88 229 88H25C13.9543 88 5 79.0457 5 68V44C5 32.9543 13.9543 24 25 24Z" stroke="white" stroke-width="2"/>
</g>
<path d="M32.254 70V62.3H35.389C36.2103 62.3 36.929 62.465 37.545 62.795C38.1683 63.1177 38.6523 63.5687 38.997 64.148C39.3417 64.7273 39.514 65.3947 39.514 66.15C39.514 66.9053 39.3417 67.5727 38.997 68.152C38.6523 68.7313 38.1683 69.186 37.545 69.516C36.929 69.8387 36.2103 70 35.389 70H32.254ZM33.068 69.296H35.345C36.027 69.296 36.6173 69.164 37.116 68.9C37.622 68.6287 38.0143 68.2583 38.293 67.789C38.5717 67.3123 38.711 66.766 38.711 66.15C38.711 65.5267 38.5717 64.9803 38.293 64.511C38.0143 64.0417 37.622 63.675 37.116 63.411C36.6173 63.1397 36.027 63.004 35.345 63.004H33.068V69.296ZM44.7959 70V68.724L44.7629 68.515V66.381C44.7629 65.8897 44.6236 65.512 44.3449 65.248C44.0736 64.984 43.6666 64.852 43.1239 64.852C42.7499 64.852 42.3942 64.9143 42.0569 65.039C41.7196 65.1637 41.4336 65.3287 41.1989 65.534L40.8469 64.951C41.1402 64.7017 41.4922 64.511 41.9029 64.379C42.3136 64.2397 42.7462 64.17 43.2009 64.17C43.9489 64.17 44.5246 64.357 44.9279 64.731C45.3386 65.0977 45.5439 65.6587 45.5439 66.414V70H44.7959ZM42.8049 70.055C42.3722 70.055 41.9946 69.9853 41.6719 69.846C41.3566 69.6993 41.1146 69.5013 40.9459 69.252C40.7772 68.9953 40.6929 68.702 40.6929 68.372C40.6929 68.0713 40.7626 67.8 40.9019 67.558C41.0486 67.3087 41.2832 67.1107 41.6059 66.964C41.9359 66.81 42.3759 66.733 42.9259 66.733H44.9169V67.316H42.9479C42.3906 67.316 42.0019 67.415 41.7819 67.613C41.5692 67.811 41.4629 68.0567 41.4629 68.35C41.4629 68.68 41.5912 68.944 41.8479 69.142C42.1046 69.34 42.4639 69.439 42.9259 69.439C43.3659 69.439 43.7436 69.34 44.0589 69.142C44.3816 68.9367 44.6162 68.6433 44.7629 68.262L44.9389 68.801C44.7922 69.1823 44.5356 69.4867 44.1689 69.714C43.8096 69.9413 43.3549 70.055 42.8049 70.055ZM47.6652 70V61.838H48.4462V70H47.6652ZM53.0723 70.055C52.4709 70.055 51.9429 69.9303 51.4883 69.681C51.0336 69.4243 50.6779 69.076 50.4213 68.636C50.1646 68.1887 50.0363 67.679 50.0363 67.107C50.0363 66.535 50.1573 66.029 50.3993 65.589C50.6486 65.149 50.9859 64.8043 51.4113 64.555C51.8439 64.2983 52.3279 64.17 52.8633 64.17C53.4059 64.17 53.8863 64.2947 54.3043 64.544C54.7296 64.786 55.0633 65.1307 55.3053 65.578C55.5473 66.018 55.6683 66.5277 55.6683 67.107C55.6683 67.1437 55.6646 67.184 55.6573 67.228C55.6573 67.2647 55.6573 67.305 55.6573 67.349H50.6303V66.766H55.2393L54.9313 66.997C54.9313 66.579 54.8396 66.2087 54.6563 65.886C54.4803 65.556 54.2383 65.2993 53.9303 65.116C53.6223 64.9327 53.2666 64.841 52.8633 64.841C52.4673 64.841 52.1116 64.9327 51.7963 65.116C51.4809 65.2993 51.2353 65.556 51.0593 65.886C50.8833 66.216 50.7953 66.5937 50.7953 67.019V67.14C50.7953 67.58 50.8906 67.9687 51.0813 68.306C51.2793 68.636 51.5506 68.8963 51.8953 69.087C52.2473 69.2703 52.6469 69.362 53.0943 69.362C53.4463 69.362 53.7726 69.2997 54.0733 69.175C54.3813 69.0503 54.6453 68.8597 54.8653 68.603L55.3053 69.109C55.0486 69.417 54.7259 69.6517 54.3373 69.813C53.9559 69.9743 53.5343 70.055 53.0723 70.055ZM63.1179 70.055C62.6192 70.055 62.1682 69.9413 61.7649 69.714C61.3615 69.4793 61.0389 69.1457 60.7969 68.713C60.5622 68.273 60.4449 67.7377 60.4449 67.107C60.4449 66.4763 60.5622 65.9447 60.7969 65.512C61.0315 65.072 61.3505 64.7383 61.7539 64.511C62.1572 64.2837 62.6119 64.17 63.1179 64.17C63.6679 64.17 64.1592 64.2947 64.5919 64.544C65.0319 64.786 65.3765 65.1307 65.6259 65.578C65.8752 66.018 65.9999 66.5277 65.9999 67.107C65.9999 67.6937 65.8752 68.207 65.6259 68.647C65.3765 69.087 65.0319 69.4317 64.5919 69.681C64.1592 69.9303 63.6679 70.055 63.1179 70.055ZM60.1369 72.134V64.225H60.8849V65.963L60.8079 67.118L60.9179 68.284V72.134H60.1369ZM63.0629 69.362C63.4735 69.362 63.8402 69.2703 64.1629 69.087C64.4855 68.8963 64.7422 68.6323 64.9329 68.295C65.1235 67.9503 65.2189 67.5543 65.2189 67.107C65.2189 66.6597 65.1235 66.2673 64.9329 65.93C64.7422 65.5927 64.4855 65.3287 64.1629 65.138C63.8402 64.9473 63.4735 64.852 63.0629 64.852C62.6522 64.852 62.2819 64.9473 61.9519 65.138C61.6292 65.3287 61.3725 65.5927 61.1819 65.93C60.9985 66.2673 60.9069 66.6597 60.9069 67.107C60.9069 67.5543 60.9985 67.9503 61.1819 68.295C61.3725 68.6323 61.6292 68.8963 61.9519 69.087C62.2819 69.2703 62.6522 69.362 63.0629 69.362ZM67.5919 70V61.838H68.3729V70H67.5919ZM74.165 70V68.724L74.132 68.515V66.381C74.132 65.8897 73.9927 65.512 73.714 65.248C73.4427 64.984 73.0357 64.852 72.493 64.852C72.119 64.852 71.7634 64.9143 71.426 65.039C71.0887 65.1637 70.8027 65.3287 70.568 65.534L70.216 64.951C70.5094 64.7017 70.8614 64.511 71.272 64.379C71.6827 64.2397 72.1154 64.17 72.57 64.17C73.318 64.17 73.8937 64.357 74.297 64.731C74.7077 65.0977 74.913 65.6587 74.913 66.414V70H74.165ZM72.174 70.055C71.7414 70.055 71.3637 69.9853 71.041 69.846C70.7257 69.6993 70.4837 69.5013 70.315 69.252C70.1464 68.9953 70.062 68.702 70.062 68.372C70.062 68.0713 70.1317 67.8 70.271 67.558C70.4177 67.3087 70.6524 67.1107 70.975 66.964C71.305 66.81 71.745 66.733 72.295 66.733H74.286V67.316H72.317C71.7597 67.316 71.371 67.415 71.151 67.613C70.9384 67.811 70.832 68.0567 70.832 68.35C70.832 68.68 70.9604 68.944 71.217 69.142C71.4737 69.34 71.833 69.439 72.295 69.439C72.735 69.439 73.1127 69.34 73.428 69.142C73.7507 68.9367 73.9854 68.6433 74.132 68.262L74.308 68.801C74.1614 69.1823 73.9047 69.4867 73.538 69.714C73.1787 69.9413 72.724 70.055 72.174 70.055ZM76.9709 72.189C76.6996 72.189 76.4392 72.145 76.1899 72.057C75.9479 71.969 75.7389 71.837 75.5629 71.661L75.9259 71.078C76.0726 71.2173 76.2302 71.3237 76.3989 71.397C76.5749 71.4777 76.7692 71.518 76.9819 71.518C77.2386 71.518 77.4586 71.4447 77.6419 71.298C77.8326 71.1587 78.0122 70.9093 78.1809 70.55L78.5549 69.703L78.6429 69.582L81.0189 64.225H81.7889L78.8959 70.693C78.7346 71.067 78.5549 71.364 78.3569 71.584C78.1662 71.804 77.9572 71.958 77.7299 72.046C77.5026 72.1413 77.2496 72.189 76.9709 72.189ZM78.5109 70.165L75.8489 64.225H76.6629L79.0169 69.527L78.5109 70.165ZM89.3867 70V68.724L89.3537 68.515V66.381C89.3537 65.8897 89.2144 65.512 88.9357 65.248C88.6644 64.984 88.2574 64.852 87.7147 64.852C87.3407 64.852 86.985 64.9143 86.6477 65.039C86.3104 65.1637 86.0244 65.3287 85.7897 65.534L85.4377 64.951C85.731 64.7017 86.083 64.511 86.4937 64.379C86.9044 64.2397 87.337 64.17 87.7917 64.17C88.5397 64.17 89.1154 64.357 89.5187 64.731C89.9294 65.0977 90.1347 65.6587 90.1347 66.414V70H89.3867ZM87.3957 70.055C86.963 70.055 86.5854 69.9853 86.2627 69.846C85.9474 69.6993 85.7054 69.5013 85.5367 69.252C85.368 68.9953 85.2837 68.702 85.2837 68.372C85.2837 68.0713 85.3534 67.8 85.4927 67.558C85.6394 67.3087 85.874 67.1107 86.1967 66.964C86.5267 66.81 86.9667 66.733 87.5167 66.733H89.5077V67.316H87.5387C86.9814 67.316 86.5927 67.415 86.3727 67.613C86.16 67.811 86.0537 68.0567 86.0537 68.35C86.0537 68.68 86.182 68.944 86.4387 69.142C86.6954 69.34 87.0547 69.439 87.5167 69.439C87.9567 69.439 88.3344 69.34 88.6497 69.142C88.9724 68.9367 89.207 68.6433 89.3537 68.262L89.5297 68.801C89.383 69.1823 89.1264 69.4867 88.7597 69.714C88.4004 69.9413 87.9457 70.055 87.3957 70.055ZM102.351 64.17C102.82 64.17 103.227 64.2617 103.572 64.445C103.924 64.621 104.195 64.8923 104.386 65.259C104.584 65.6257 104.683 66.0877 104.683 66.645V70H103.902V66.722C103.902 66.1133 103.755 65.655 103.462 65.347C103.176 65.0317 102.769 64.874 102.241 64.874C101.845 64.874 101.5 64.9583 101.207 65.127C100.921 65.2883 100.697 65.5267 100.536 65.842C100.382 66.15 100.305 66.524 100.305 66.964V70H99.5239V66.722C99.5239 66.1133 99.3772 65.655 99.0839 65.347C98.7906 65.0317 98.3799 64.874 97.8519 64.874C97.4632 64.874 97.1222 64.9583 96.8289 65.127C96.5356 65.2883 96.3082 65.5267 96.1469 65.842C95.9929 66.15 95.9159 66.524 95.9159 66.964V70H95.1349V64.225H95.8829V65.787L95.7619 65.512C95.9379 65.094 96.2202 64.7677 96.6089 64.533C97.0049 64.291 97.4706 64.17 98.0059 64.17C98.5706 64.17 99.0509 64.313 99.4469 64.599C99.8429 64.8777 100.1 65.2993 100.217 65.864L99.9089 65.743C100.078 65.2737 100.375 64.896 100.8 64.61C101.233 64.3167 101.75 64.17 102.351 64.17ZM106.801 70V64.225H107.582V70H106.801ZM107.197 62.949C107.036 62.949 106.9 62.894 106.79 62.784C106.68 62.674 106.625 62.542 106.625 62.388C106.625 62.234 106.68 62.1057 106.79 62.003C106.9 61.893 107.036 61.838 107.197 61.838C107.358 61.838 107.494 61.8893 107.604 61.992C107.714 62.0947 107.769 62.223 107.769 62.377C107.769 62.5383 107.714 62.674 107.604 62.784C107.501 62.894 107.366 62.949 107.197 62.949ZM115.032 70.055C114.46 70.055 113.947 69.9303 113.492 69.681C113.045 69.4243 112.693 69.076 112.436 68.636C112.179 68.1887 112.051 67.679 112.051 67.107C112.051 66.5277 112.179 66.018 112.436 65.578C112.693 65.138 113.045 64.7933 113.492 64.544C113.947 64.2947 114.46 64.17 115.032 64.17C115.523 64.17 115.967 64.2653 116.363 64.456C116.759 64.6467 117.071 64.9327 117.298 65.314L116.715 65.71C116.517 65.4167 116.271 65.2003 115.978 65.061C115.685 64.9217 115.366 64.852 115.021 64.852C114.61 64.852 114.24 64.9473 113.91 65.138C113.58 65.3213 113.32 65.5817 113.129 65.919C112.938 66.2563 112.843 66.6523 112.843 67.107C112.843 67.5617 112.938 67.9577 113.129 68.295C113.32 68.6323 113.58 68.8963 113.91 69.087C114.24 69.2703 114.61 69.362 115.021 69.362C115.366 69.362 115.685 69.2923 115.978 69.153C116.271 69.0137 116.517 68.801 116.715 68.515L117.298 68.911C117.071 69.285 116.759 69.571 116.363 69.769C115.967 69.9597 115.523 70.055 115.032 70.055ZM118.832 70V64.225H119.58V65.798L119.503 65.523C119.664 65.083 119.936 64.7493 120.317 64.522C120.698 64.2873 121.171 64.17 121.736 64.17V64.929C121.707 64.929 121.677 64.929 121.648 64.929C121.619 64.9217 121.589 64.918 121.56 64.918C120.951 64.918 120.475 65.105 120.13 65.479C119.785 65.8457 119.613 66.37 119.613 67.052V70H118.832ZM125.561 70.055C124.959 70.055 124.431 69.9303 123.977 69.681C123.522 69.4243 123.166 69.076 122.91 68.636C122.653 68.1887 122.525 67.679 122.525 67.107C122.525 66.535 122.646 66.029 122.888 65.589C123.137 65.149 123.474 64.8043 123.9 64.555C124.332 64.2983 124.816 64.17 125.352 64.17C125.894 64.17 126.375 64.2947 126.793 64.544C127.218 64.786 127.552 65.1307 127.794 65.578C128.036 66.018 128.157 66.5277 128.157 67.107C128.157 67.1437 128.153 67.184 128.146 67.228C128.146 67.2647 128.146 67.305 128.146 67.349H123.119V66.766H127.728L127.42 66.997C127.42 66.579 127.328 66.2087 127.145 65.886C126.969 65.556 126.727 65.2993 126.419 65.116C126.111 64.9327 125.755 64.841 125.352 64.841C124.956 64.841 124.6 64.9327 124.285 65.116C123.969 65.2993 123.724 65.556 123.548 65.886C123.372 66.216 123.284 66.5937 123.284 67.019V67.14C123.284 67.58 123.379 67.9687 123.57 68.306C123.768 68.636 124.039 68.8963 124.384 69.087C124.736 69.2703 125.135 69.362 125.583 69.362C125.935 69.362 126.261 69.2997 126.562 69.175C126.87 69.0503 127.134 68.8597 127.354 68.603L127.794 69.109C127.537 69.417 127.214 69.6517 126.826 69.813C126.444 69.9743 126.023 70.055 125.561 70.055ZM133.204 70V68.724L133.171 68.515V66.381C133.171 65.8897 133.032 65.512 132.753 65.248C132.482 64.984 132.075 64.852 131.532 64.852C131.158 64.852 130.802 64.9143 130.465 65.039C130.128 65.1637 129.842 65.3287 129.607 65.534L129.255 64.951C129.548 64.7017 129.9 64.511 130.311 64.379C130.722 64.2397 131.154 64.17 131.609 64.17C132.357 64.17 132.933 64.357 133.336 64.731C133.747 65.0977 133.952 65.6587 133.952 66.414V70H133.204ZM131.213 70.055C130.78 70.055 130.403 69.9853 130.08 69.846C129.765 69.6993 129.523 69.5013 129.354 69.252C129.185 68.9953 129.101 68.702 129.101 68.372C129.101 68.0713 129.171 67.8 129.31 67.558C129.457 67.3087 129.691 67.1107 130.014 66.964C130.344 66.81 130.784 66.733 131.334 66.733H133.325V67.316H131.356C130.799 67.316 130.41 67.415 130.19 67.613C129.977 67.811 129.871 68.0567 129.871 68.35C129.871 68.68 129.999 68.944 130.256 69.142C130.513 69.34 130.872 69.439 131.334 69.439C131.774 69.439 132.152 69.34 132.467 69.142C132.79 68.9367 133.024 68.6433 133.171 68.262L133.347 68.801C133.2 69.1823 132.944 69.4867 132.577 69.714C132.218 69.9413 131.763 70.055 131.213 70.055ZM137.899 70.055C137.357 70.055 136.939 69.9083 136.645 69.615C136.352 69.3217 136.205 68.9073 136.205 68.372V62.949H136.986V68.328C136.986 68.6653 137.071 68.9257 137.239 69.109C137.415 69.2923 137.665 69.384 137.987 69.384C138.332 69.384 138.618 69.285 138.845 69.087L139.12 69.648C138.966 69.7873 138.779 69.89 138.559 69.956C138.347 70.022 138.127 70.055 137.899 70.055ZM135.171 64.874V64.225H138.746V64.874H135.171ZM140.542 70V64.225H141.323V70H140.542ZM140.938 62.949C140.777 62.949 140.641 62.894 140.531 62.784C140.421 62.674 140.366 62.542 140.366 62.388C140.366 62.234 140.421 62.1057 140.531 62.003C140.641 61.893 140.777 61.838 140.938 61.838C141.099 61.838 141.235 61.8893 141.345 61.992C141.455 62.0947 141.51 62.223 141.51 62.377C141.51 62.5383 141.455 62.674 141.345 62.784C141.242 62.894 141.107 62.949 140.938 62.949ZM144.981 70L142.418 64.225H143.232L145.586 69.582H145.201L147.588 64.225H148.358L145.784 70H144.981ZM149.458 70V64.225H150.239V70H149.458ZM149.854 62.949C149.693 62.949 149.557 62.894 149.447 62.784C149.337 62.674 149.282 62.542 149.282 62.388C149.282 62.234 149.337 62.1057 149.447 62.003C149.557 61.893 149.693 61.838 149.854 61.838C150.015 61.838 150.151 61.8893 150.261 61.992C150.371 62.0947 150.426 62.223 150.426 62.377C150.426 62.5383 150.371 62.674 150.261 62.784C150.158 62.894 150.023 62.949 149.854 62.949ZM154.711 70.055C154.161 70.055 153.666 69.9303 153.226 69.681C152.794 69.4317 152.453 69.087 152.203 68.647C151.954 68.1997 151.829 67.6863 151.829 67.107C151.829 66.5203 151.954 66.007 152.203 65.567C152.453 65.127 152.794 64.786 153.226 64.544C153.666 64.2947 154.161 64.17 154.711 64.17C155.217 64.17 155.668 64.2837 156.064 64.511C156.468 64.7383 156.787 65.072 157.021 65.512C157.263 65.9447 157.384 66.4763 157.384 67.107C157.384 67.7303 157.267 68.262 157.032 68.702C156.798 69.142 156.479 69.4793 156.075 69.714C155.679 69.9413 155.225 70.055 154.711 70.055ZM154.766 69.362C155.177 69.362 155.544 69.2703 155.866 69.087C156.196 68.8963 156.453 68.6323 156.636 68.295C156.827 67.9503 156.922 67.5543 156.922 67.107C156.922 66.6523 156.827 66.2563 156.636 65.919C156.453 65.5817 156.196 65.3213 155.866 65.138C155.544 64.9473 155.177 64.852 154.766 64.852C154.363 64.852 154 64.9473 153.677 65.138C153.355 65.3213 153.098 65.5817 152.907 65.919C152.717 66.2563 152.621 66.6523 152.621 67.107C152.621 67.5543 152.717 67.9503 152.907 68.295C153.098 68.6323 153.355 68.8963 153.677 69.087C154 69.2703 154.363 69.362 154.766 69.362ZM156.944 70V68.262L157.021 67.096L156.911 65.93V61.838H157.692V70H156.944ZM163.486 70V68.724L163.453 68.515V66.381C163.453 65.8897 163.314 65.512 163.035 65.248C162.764 64.984 162.357 64.852 161.814 64.852C161.44 64.852 161.085 64.9143 160.747 65.039C160.41 65.1637 160.124 65.3287 159.889 65.534L159.537 64.951C159.831 64.7017 160.183 64.511 160.593 64.379C161.004 64.2397 161.437 64.17 161.891 64.17C162.639 64.17 163.215 64.357 163.618 64.731C164.029 65.0977 164.234 65.6587 164.234 66.414V70H163.486ZM161.495 70.055C161.063 70.055 160.685 69.9853 160.362 69.846C160.047 69.6993 159.805 69.5013 159.636 69.252C159.468 68.9953 159.383 68.702 159.383 68.372C159.383 68.0713 159.453 67.8 159.592 67.558C159.739 67.3087 159.974 67.1107 160.296 66.964C160.626 66.81 161.066 66.733 161.616 66.733H163.607V67.316H161.638C161.081 67.316 160.692 67.415 160.472 67.613C160.26 67.811 160.153 68.0567 160.153 68.35C160.153 68.68 160.282 68.944 160.538 69.142C160.795 69.34 161.154 69.439 161.616 69.439C162.056 69.439 162.434 69.34 162.749 69.142C163.072 68.9367 163.307 68.6433 163.453 68.262L163.629 68.801C163.483 69.1823 163.226 69.4867 162.859 69.714C162.5 69.9413 162.045 70.055 161.495 70.055ZM168.655 70.055C168.105 70.055 167.61 69.9303 167.17 69.681C166.737 69.4317 166.396 69.087 166.147 68.647C165.897 68.1997 165.773 67.6863 165.773 67.107C165.773 66.5203 165.897 66.007 166.147 65.567C166.396 65.127 166.737 64.786 167.17 64.544C167.61 64.2947 168.105 64.17 168.655 64.17C169.161 64.17 169.612 64.2837 170.008 64.511C170.411 64.7383 170.73 65.072 170.965 65.512C171.207 65.9447 171.328 66.4763 171.328 67.107C171.328 67.7303 171.21 68.262 170.976 68.702C170.741 69.142 170.422 69.4793 170.019 69.714C169.623 69.9413 169.168 70.055 168.655 70.055ZM168.71 69.362C169.12 69.362 169.487 69.2703 169.81 69.087C170.14 68.8963 170.396 68.6323 170.58 68.295C170.77 67.9503 170.866 67.5543 170.866 67.107C170.866 66.6523 170.77 66.2563 170.58 65.919C170.396 65.5817 170.14 65.3213 169.81 65.138C169.487 64.9473 169.12 64.852 168.71 64.852C168.306 64.852 167.943 64.9473 167.621 65.138C167.298 65.3213 167.041 65.5817 166.851 65.919C166.66 66.2563 166.565 66.6523 166.565 67.107C166.565 67.5543 166.66 67.9503 166.851 68.295C167.041 68.6323 167.298 68.8963 167.621 69.087C167.943 69.2703 168.306 69.362 168.71 69.362ZM170.888 70V68.262L170.965 67.096L170.855 65.93V61.838H171.636V70H170.888Z" fill="white"/>
<path d="M30.594 56L24.9071 42.9906H27.5275L32.6012 54.7548H31.0958L36.2252 42.9906H38.6413L32.9729 56H30.594ZM39.9 56V46.0757H42.2231V56H39.9ZM41.0708 44.4402C40.6372 44.4402 40.2778 44.3039 39.9929 44.0314C39.7203 43.7588 39.584 43.4305 39.584 43.0464C39.584 42.6499 39.7203 42.3216 39.9929 42.0614C40.2778 41.7888 40.6372 41.6525 41.0708 41.6525C41.5044 41.6525 41.8576 41.7826 42.1301 42.0428C42.4151 42.2906 42.5576 42.6065 42.5576 42.9906C42.5576 43.3995 42.4213 43.7464 42.1487 44.0314C41.8761 44.3039 41.5168 44.4402 41.0708 44.4402ZM49.4723 56.1301C48.5183 56.1301 47.6572 55.9195 46.889 55.4982C46.1332 55.0646 45.5385 54.4698 45.1049 53.7141C44.6712 52.9583 44.4544 52.0662 44.4544 51.0378C44.4544 50.0095 44.6712 49.1174 45.1049 48.3616C45.5385 47.6058 46.1332 47.0173 46.889 46.5961C47.6572 46.1748 48.5183 45.9642 49.4723 45.9642C50.3024 45.9642 51.0458 46.15 51.7025 46.5217C52.3592 46.881 52.8795 47.4324 53.2636 48.1758C53.6477 48.9192 53.8397 49.8732 53.8397 51.0378C53.8397 52.1901 53.6539 53.1441 53.2822 53.8999C52.9105 54.6433 52.3963 55.2009 51.7397 55.5725C51.083 55.9442 50.3272 56.1301 49.4723 56.1301ZM49.7511 54.1415C50.3086 54.1415 50.8042 54.0176 51.2379 53.7698C51.6839 53.522 52.037 53.1627 52.2972 52.6919C52.5698 52.2211 52.7061 51.6697 52.7061 51.0378C52.7061 50.3936 52.5698 49.8422 52.2972 49.3838C52.037 48.913 51.6839 48.5537 51.2379 48.3059C50.8042 48.0581 50.3086 47.9342 49.7511 47.9342C49.1935 47.9342 48.6917 48.0581 48.2457 48.3059C47.8121 48.5537 47.459 48.913 47.1864 49.3838C46.9262 49.8422 46.7961 50.3936 46.7961 51.0378C46.7961 51.6697 46.9262 52.2211 47.1864 52.6919C47.459 53.1627 47.8121 53.522 48.2457 53.7698C48.6917 54.0176 49.1935 54.1415 49.7511 54.1415ZM52.7618 56V53.6583L52.8547 51.0193L52.6689 48.3802V42.2101H54.9734V56H52.7618ZM62.6959 56.1301C61.5932 56.1301 60.6267 55.9133 59.7966 55.4796C58.9789 55.0336 58.3408 54.4265 57.8824 53.6583C57.4363 52.8901 57.2133 52.0167 57.2133 51.0378C57.2133 50.0467 57.4301 49.1732 57.8638 48.4174C58.3098 47.6492 58.9169 47.0483 59.6851 46.6147C60.4657 46.181 61.3516 45.9642 62.3427 45.9642C63.3092 45.9642 64.1703 46.1748 64.926 46.5961C65.6818 47.0173 66.2765 47.612 66.7102 48.3802C67.1438 49.1484 67.3606 50.0529 67.3606 51.0936C67.3606 51.1927 67.3545 51.3042 67.3421 51.4281C67.3421 51.552 67.3359 51.6697 67.3235 51.7812H59.0532V50.2387H66.0969L65.1862 50.7219C65.1986 50.152 65.0809 49.6502 64.8331 49.2165C64.5853 48.7829 64.2446 48.4422 63.8109 48.1944C63.3897 47.9466 62.9003 47.8227 62.3427 47.8227C61.7728 47.8227 61.271 47.9466 60.8374 48.1944C60.4161 48.4422 60.0816 48.7891 59.8338 49.2351C59.5984 49.6688 59.4807 50.1829 59.4807 50.7777V51.1494C59.4807 51.7441 59.617 52.2706 59.8895 52.7291C60.1621 53.1875 60.5462 53.5406 61.0418 53.7884C61.5374 54.0362 62.1073 54.1601 62.7516 54.1601C63.3092 54.1601 63.8109 54.0734 64.257 53.8999C64.703 53.7265 65.0995 53.4539 65.4464 53.0822L66.6916 54.5132C66.2456 55.0336 65.6818 55.4363 65.0004 55.7212C64.3313 55.9938 63.5631 56.1301 62.6959 56.1301ZM74.0525 56.1301C73.0365 56.1301 72.1321 55.9133 71.3391 55.4796C70.5462 55.0336 69.9205 54.4265 69.462 53.6583C69.0036 52.8901 68.7744 52.0167 68.7744 51.0378C68.7744 50.0467 69.0036 49.1732 69.462 48.4174C69.9205 47.6492 70.5462 47.0483 71.3391 46.6147C72.1321 46.181 73.0365 45.9642 74.0525 45.9642C75.0809 45.9642 75.9915 46.181 76.7845 46.6147C77.5898 47.0483 78.2155 47.643 78.6615 48.3988C79.12 49.1546 79.3492 50.0343 79.3492 51.0378C79.3492 52.0167 79.12 52.8901 78.6615 53.6583C78.2155 54.4265 77.5898 55.0336 76.7845 55.4796C75.9915 55.9133 75.0809 56.1301 74.0525 56.1301ZM74.0525 54.1415C74.6224 54.1415 75.1304 54.0176 75.5764 53.7698C76.0225 53.522 76.3694 53.1627 76.6172 52.6919C76.8774 52.2211 77.0075 51.6697 77.0075 51.0378C77.0075 50.3936 76.8774 49.8422 76.6172 49.3838C76.3694 48.913 76.0225 48.5537 75.5764 48.3059C75.1304 48.0581 74.6286 47.9342 74.0711 47.9342C73.5011 47.9342 72.9932 48.0581 72.5471 48.3059C72.1135 48.5537 71.7666 48.913 71.5064 49.3838C71.2462 49.8422 71.1161 50.3936 71.1161 51.0378C71.1161 51.6697 71.2462 52.2211 71.5064 52.6919C71.7666 53.1627 72.1135 53.522 72.5471 53.7698C72.9932 54.0176 73.4949 54.1415 74.0525 54.1415ZM86.9299 56V42.9906H92.2823C93.4346 42.9906 94.4196 43.1765 95.2373 43.5482C96.0674 43.9199 96.7055 44.4526 97.1516 45.1465C97.5976 45.8403 97.8206 46.6642 97.8206 47.6182C97.8206 48.5723 97.5976 49.3962 97.1516 50.09C96.7055 50.7839 96.0674 51.3166 95.2373 51.6883C94.4196 52.06 93.4346 52.2459 92.2823 52.2459H88.268L89.3459 51.1122V56H86.9299ZM89.3459 51.3724L88.268 50.2015H92.1708C93.2364 50.2015 94.0355 49.9785 94.5683 49.5325C95.1134 49.0741 95.386 48.436 95.386 47.6182C95.386 46.7881 95.1134 46.15 94.5683 45.704C94.0355 45.258 93.2364 45.0349 92.1708 45.0349H88.268L89.3459 43.8455V51.3724ZM104.434 56.1301C103.418 56.1301 102.514 55.9133 101.721 55.4796C100.928 55.0336 100.302 54.4265 99.8439 53.6583C99.3855 52.8901 99.1563 52.0167 99.1563 51.0378C99.1563 50.0467 99.3855 49.1732 99.8439 48.4174C100.302 47.6492 100.928 47.0483 101.721 46.6147C102.514 46.181 103.418 45.9642 104.434 45.9642C105.463 45.9642 106.373 46.181 107.166 46.6147C107.972 47.0483 108.597 47.643 109.043 48.3988C109.502 49.1546 109.731 50.0343 109.731 51.0378C109.731 52.0167 109.502 52.8901 109.043 53.6583C108.597 54.4265 107.972 55.0336 107.166 55.4796C106.373 55.9133 105.463 56.1301 104.434 56.1301ZM104.434 54.1415C105.004 54.1415 105.512 54.0176 105.958 53.7698C106.404 53.522 106.751 53.1627 106.999 52.6919C107.259 52.2211 107.389 51.6697 107.389 51.0378C107.389 50.3936 107.259 49.8422 106.999 49.3838C106.751 48.913 106.404 48.5537 105.958 48.3059C105.512 48.0581 105.01 47.9342 104.453 47.9342C103.883 47.9342 103.375 48.0581 102.929 48.3059C102.495 48.5537 102.148 48.913 101.888 49.3838C101.628 49.8422 101.498 50.3936 101.498 51.0378C101.498 51.6697 101.628 52.2211 101.888 52.6919C102.148 53.1627 102.495 53.522 102.929 53.7698C103.375 54.0176 103.877 54.1415 104.434 54.1415ZM111.952 56V46.0757H114.164V48.8077L113.904 48.0085C114.201 47.3395 114.666 46.8315 115.298 46.4846C115.942 46.1376 116.741 45.9642 117.695 45.9642V48.1758C117.596 48.151 117.503 48.1386 117.416 48.1386C117.33 48.1262 117.243 48.12 117.156 48.12C116.277 48.12 115.577 48.3802 115.056 48.9006C114.536 49.4086 114.276 50.1706 114.276 51.1865V56H111.952ZM123.764 56.1301C122.674 56.1301 121.832 55.8513 121.237 55.2938C120.642 54.7238 120.345 53.8875 120.345 52.7848V43.8827H122.668V52.7291C122.668 53.1999 122.786 53.5654 123.021 53.8256C123.269 54.0858 123.61 54.2159 124.043 54.2159C124.564 54.2159 124.997 54.0796 125.344 53.807L125.995 55.461C125.722 55.6841 125.388 55.8513 124.991 55.9628C124.595 56.0743 124.186 56.1301 123.764 56.1301ZM118.709 48.0085V46.15H125.326V48.0085H118.709ZM134.02 56V53.9928L133.89 53.5654V50.0529C133.89 49.3714 133.686 48.8448 133.277 48.4731C132.868 48.0891 132.248 47.897 131.418 47.897C130.861 47.897 130.309 47.9837 129.764 48.1572C129.231 48.3307 128.779 48.5723 128.407 48.882L127.497 47.1908C128.03 46.7819 128.661 46.4784 129.392 46.2801C130.136 46.0695 130.904 45.9642 131.697 45.9642C133.134 45.9642 134.243 46.3111 135.024 47.0049C135.817 47.6864 136.213 48.7457 136.213 50.1829V56H134.02ZM130.898 56.1301C130.154 56.1301 129.504 56.0062 128.946 55.7584C128.389 55.4982 127.955 55.1451 127.645 54.6991C127.348 54.2406 127.199 53.7265 127.199 53.1565C127.199 52.599 127.33 52.0972 127.59 51.6511C127.862 51.2051 128.302 50.852 128.909 50.5918C129.516 50.3316 130.322 50.2015 131.325 50.2015H134.206V51.7441H131.493C130.7 51.7441 130.167 51.8742 129.894 52.1344C129.622 52.3822 129.485 52.6919 129.485 53.0636C129.485 53.4849 129.653 53.8194 129.987 54.0672C130.322 54.315 130.786 54.4389 131.381 54.4389C131.951 54.4389 132.459 54.3088 132.905 54.0486C133.363 53.7884 133.692 53.4043 133.89 52.8963L134.28 54.2902C134.057 54.8725 133.655 55.3248 133.072 55.6469C132.502 55.969 131.778 56.1301 130.898 56.1301ZM139.51 56V45.5182C139.51 44.4774 139.814 43.6473 140.421 43.0278C141.041 42.3959 141.92 42.08 143.06 42.08C143.469 42.08 143.853 42.1233 144.212 42.2101C144.584 42.2968 144.894 42.4331 145.142 42.6189L144.51 44.3659C144.336 44.2296 144.138 44.1305 143.915 44.0685C143.692 43.9942 143.463 43.957 143.227 43.957C142.744 43.957 142.379 44.0933 142.131 44.3659C141.883 44.6261 141.759 45.0226 141.759 45.5553V46.6704L141.834 47.7112V56H139.51ZM137.875 48.0085V46.15H144.491V48.0085H137.875ZM150.37 56.1301C149.354 56.1301 148.45 55.9133 147.657 55.4796C146.864 55.0336 146.238 54.4265 145.78 53.6583C145.321 52.8901 145.092 52.0167 145.092 51.0378C145.092 50.0467 145.321 49.1732 145.78 48.4174C146.238 47.6492 146.864 47.0483 147.657 46.6147C148.45 46.181 149.354 45.9642 150.37 45.9642C151.398 45.9642 152.309 46.181 153.102 46.6147C153.907 47.0483 154.533 47.643 154.979 48.3988C155.438 49.1546 155.667 50.0343 155.667 51.0378C155.667 52.0167 155.438 52.8901 154.979 53.6583C154.533 54.4265 153.907 55.0336 153.102 55.4796C152.309 55.9133 151.398 56.1301 150.37 56.1301ZM150.37 54.1415C150.94 54.1415 151.448 54.0176 151.894 53.7698C152.34 53.522 152.687 53.1627 152.935 52.6919C153.195 52.2211 153.325 51.6697 153.325 51.0378C153.325 50.3936 153.195 49.8422 152.935 49.3838C152.687 48.913 152.34 48.5537 151.894 48.3059C151.448 48.0581 150.946 47.9342 150.389 47.9342C149.819 47.9342 149.311 48.0581 148.865 48.3059C148.431 48.5537 148.084 48.913 147.824 49.3838C147.564 49.8422 147.434 50.3936 147.434 51.0378C147.434 51.6697 147.564 52.2211 147.824 52.6919C148.084 53.1627 148.431 53.522 148.865 53.7698C149.311 54.0176 149.813 54.1415 150.37 54.1415ZM157.888 56V42.2101H160.211V56H157.888ZM163.26 56V46.0757H165.584V56H163.26ZM164.431 44.4402C163.998 44.4402 163.638 44.3039 163.353 44.0314C163.081 43.7588 162.944 43.4305 162.944 43.0464C162.944 42.6499 163.081 42.3216 163.353 42.0614C163.638 41.7888 163.998 41.6525 164.431 41.6525C164.865 41.6525 165.218 41.7826 165.491 42.0428C165.776 42.2906 165.918 42.6065 165.918 42.9906C165.918 43.3995 165.782 43.7464 165.509 44.0314C165.237 44.3039 164.877 44.4402 164.431 44.4402ZM173.093 56.1301C172.077 56.1301 171.173 55.9133 170.38 55.4796C169.587 55.0336 168.961 54.4265 168.503 53.6583C168.044 52.8901 167.815 52.0167 167.815 51.0378C167.815 50.0467 168.044 49.1732 168.503 48.4174C168.961 47.6492 169.587 47.0483 170.38 46.6147C171.173 46.181 172.077 45.9642 173.093 45.9642C174.121 45.9642 175.032 46.181 175.825 46.6147C176.63 47.0483 177.256 47.643 177.702 48.3988C178.16 49.1546 178.39 50.0343 178.39 51.0378C178.39 52.0167 178.16 52.8901 177.702 53.6583C177.256 54.4265 176.63 55.0336 175.825 55.4796C175.032 55.9133 174.121 56.1301 173.093 56.1301ZM173.093 54.1415C173.663 54.1415 174.171 54.0176 174.617 53.7698C175.063 53.522 175.41 53.1627 175.658 52.6919C175.918 52.2211 176.048 51.6697 176.048 51.0378C176.048 50.3936 175.918 49.8422 175.658 49.3838C175.41 48.913 175.063 48.5537 174.617 48.3059C174.171 48.0581 173.669 47.9342 173.112 47.9342C172.542 47.9342 172.034 48.0581 171.588 48.3059C171.154 48.5537 170.807 48.913 170.547 49.3838C170.287 49.8422 170.157 50.3936 170.157 51.0378C170.157 51.6697 170.287 52.2211 170.547 52.6919C170.807 53.1627 171.154 53.522 171.588 53.7698C172.034 54.0176 172.535 54.1415 173.093 54.1415Z" fill="white"/>
<g filter="url(#filter1_d_110_20)">
<g filter="url(#filter2_di_110_20)">
<circle cx="237.5" cy="55.5" r="46.5" transform="rotate(90 237.5 55.5)" fill="url(#paint1_radial_110_20)"/>
<circle cx="237.5" cy="55.5" r="45.5" transform="rotate(90 237.5 55.5)" stroke="white" stroke-width="2"/>
</g>
<path d="M256.798 53.3958C258.417 54.3307 258.417 56.6679 256.798 57.6028L229.675 73.2621C228.056 74.197 226.031 73.0284 226.031 71.1586L226.031 39.84C226.031 37.9702 228.056 36.8016 229.675 37.7365L256.798 53.3958Z" fill="white"/>
</g>
<defs>
<filter id="filter0_d_110_20" x="0" y="23" width="254" height="74" filterUnits="userSpaceOnUse" color-interpolation-filters="sRGB">
<feFlood flood-opacity="0" result="BackgroundImageFix"/>
<feColorMatrix in="SourceAlpha" type="matrix" values="0 0 0 0 0 0 0 0 0 0 0 0 0 0 0 0 0 0 127 0" result="hardAlpha"/>
<feOffset dy="4"/>
<feGaussianBlur stdDeviation="2"/>
<feComposite in2="hardAlpha" operator="out"/>
<feColorMatrix type="matrix" values="0 0 0 0 0 0 0 0 0 0 0 0 0 0 0 0 0 0 0.25 0"/>
<feBlend mode="normal" in2="BackgroundImageFix" result="effect1_dropShadow_110_20"/>
<feBlend mode="normal" in="SourceGraphic" in2="effect1_dropShadow_110_20" result="shape"/>
</filter>
<filter id="filter1_d_110_20" x="168.9" y="2.9" width="115.1" height="113.2" filterUnits="userSpaceOnUse" color-interpolation-filters="sRGB">
<feFlood flood-opacity="0" result="BackgroundImageFix"/>
<feColorMatrix in="SourceAlpha" type="matrix" values="0 0 0 0 0 0 0 0 0 0 0 0 0 0 0 0 0 0 127 0" result="hardAlpha"/>
<feOffset dx="-12" dy="4"/>
<feGaussianBlur stdDeviation="5.05"/>
<feComposite in2="hardAlpha" operator="out"/>
<feColorMatrix type="matrix" values="0 0 0 0 0 0 0 0 0 0 0 0 0 0 0 0 0 0 0.25 0"/>
<feBlend mode="normal" in2="BackgroundImageFix" result="effect1_dropShadow_110_20"/>
<feBlend mode="normal" in="SourceGraphic" in2="effect1_dropShadow_110_20" result="shape"/>
</filter>
<filter id="filter2_di_110_20" x="179.739" y="0.241184" width="115.523" height="115.523" filterUnits="userSpaceOnUse" color-interpolation-filters="sRGB">
<feFlood flood-opacity="0" result="BackgroundImageFix"/>
<feColorMatrix in="SourceAlpha" type="matrix" values="0 0 0 0 0 0 0 0 0 0 0 0 0 0 0 0 0 0 127 0" result="hardAlpha"/>
<feOffset dy="2.50252"/>
<feGaussianBlur stdDeviation="5.63067"/>
<feComposite in2="hardAlpha" operator="out"/>
<feColorMatrix type="matrix" values="0 0 0 0 0 0 0 0 0 0 0 0 0 0 0 0 0 0 0.1 0"/>
<feBlend mode="normal" in2="BackgroundImageFix" result="effect1_dropShadow_110_20"/>
<feBlend mode="normal" in="SourceGraphic" in2="effect1_dropShadow_110_20" result="shape"/>
<feColorMatrix in="SourceAlpha" type="matrix" values="0 0 0 0 0 0 0 0 0 0 0 0 0 0 0 0 0 0 127 0" result="hardAlpha"/>
<feOffset dy="3.23855"/>
<feGaussianBlur stdDeviation="1.61928"/>
<feComposite in2="hardAlpha" operator="arithmetic" k2="-1" k3="1"/>
<feColorMatrix type="matrix" values="0 0 0 0 0 0 0 0 0 0 0 0 0 0 0 0 0 0 0.25 0"/>
<feBlend mode="normal" in2="shape" result="effect2_innerShadow_110_20"/>
</filter>
<linearGradient id="paint0_linear_110_20" x1="74.5" y1="58" x2="250" y2="56" gradientUnits="userSpaceOnUse">
<stop stop-color="#0A0432" stop-opacity="0"/>
<stop offset="1" stop-color="#0A0432"/>
</linearGradient>
<radialGradient id="paint1_radial_110_20" cx="0" cy="0" r="1" gradientUnits="userSpaceOnUse" gradientTransform="translate(230.268 9.43892) rotate(61.6993) scale(186.361 5194.45)">
<stop stop-color="#FE11BE"/>
<stop offset="1" stop-color="#640A4A"/>
</radialGradient>
</defs>
</svg>
